<svg viewBox="0 0 800 200" xmlns="http://www.w3.org/2000/svg">
  <!-- Fond principal -->
  <rect width="800" height="200" fill="#2A1E4A" />
  
  <!-- Grille pixel (plus discrète) -->
  <g stroke="#3A2D5A" stroke-width="1" opacity="0.2">
    <!-- Lignes verticales -->
    <g transform="translate(0,0)">
      <line x1="20" y1="0" x2="20" y2="200" />
      <line x1="40" y1="0" x2="40" y2="200" />
      <!-- ... (répéter jusqu'à 800) ... -->
    </g>
    <!-- Lignes horizontales -->
    <line x1="0" y1="20" x2="800" y2="20" />
    <line x1="0" y1="40" x2="800" y2="40" />
    <!-- ... (répéter jusqu'à 200) ... -->
  </g>

  <!-- Éléments décoratifs admin -->
  <g id="admin-elements">
    <!-- Icônes d'administration en pixel art -->
    <g id="database-icon" transform="translate(50, 40)">
      <rect x="0" y="10" width="60" height="30" fill="#4A3D70" stroke="#7E5BFF" stroke-width="2"/>
      <rect x="10" y="0" width="40" height="10" fill="#7E5BFF"/>
      <rect x="15" y="20" width="30" height="5" fill="#00B4D8"/>
    </g>
    
    <g id="server-icon" transform="translate(150, 30)">
      <rect x="0" y="0" width="50" height="50" fill="#3A2D5A" stroke="#00B4D8" stroke-width="2"/>
      <rect x="10" y="10" width="30" height="5" fill="#00B4D8"/>
      <rect x="10" y="20" width="30" height="5" fill="#00B4D8"/>
      <rect x="10" y="30" width="30" height="5" fill="#00B4D8"/>
    </g>
    
    <g id="shield-icon" transform="translate(280, 50)">
      <polygon points="30,0 0,50 60,50" fill="#7E5BFF"/>
      <rect x="20" y="20" width="20" height="20" fill="#2A1E4A"/>
      <rect x="25" y="25" width="10" height="10" fill="#00B4D8"/>
    </g>
    
    <!-- Graphiques en pixel art -->
    <g id="chart" transform="translate(400, 40)">
      <rect x="0" y="50" width="15" height="30" fill="#00B4D8"/> <!-- Barre 1 -->
      <rect x="20" y="30" width="15" height="50" fill="#7E5BFF"/> <!-- Barre 2 -->
      <rect x="40" y="10" width="15" height="70" fill="#FF9E00"/> <!-- Barre 3 -->
      <rect x="60" y="40" width="15" height="40" fill="#00D8A0"/> <!-- Barre 4 -->
      <line x1="0" y1="80" x2="80" y2="80" stroke="#A095D5" stroke-width="2"/> <!-- Axe -->
    </g>
  </g>
  
  <!-- Effets lumineux (discrets) -->
  <g opacity="0.15">
    <rect x="600" y="30" width="100" height="100" fill="url(#light-gradient)"/>
  </g>
  
  <defs>
    <linearGradient id="light-gradient" x1="0%" y1="0%" x2="100%" y2="100%">
      <stop offset="0%" stop-color="#7E5BFF"/>
      <stop offset="100%" stop-color="#00B4D8"/>
    </linearGradient>
  </defs>
</svg>