<svg viewBox="0 0 800 120" xmlns="http://www.w3.org/2000/svg">
  <!-- Fond avec effet pixel -->
  <rect width="800" height="120" fill="#5D4E8C" />
  
  <!-- Grille pour effet pixelisé -->
  <g stroke="#4A3D70" stroke-width="1" opacity="0.3">
    <g id="vertical-lines">
      <line x1="20" y1="0" x2="20" y2="120" />
      <line x1="40" y1="0" x2="40" y2="120" />
      <line x1="60" y1="0" x2="60" y2="120" />
      <line x1="80" y1="0" x2="80" y2="120" />
      <line x1="100" y1="0" x2="100" y2="120" />
      <line x1="120" y1="0" x2="120" y2="120" />
      <line x1="140" y1="0" x2="140" y2="120" />
      <line x1="160" y1="0" x2="160" y2="120" />
      <line x1="180" y1="0" x2="180" y2="120" />
      <line x1="200" y1="0" x2="200" y2="120" />
      <line x1="220" y1="0" x2="220" y2="120" />
      <line x1="240" y1="0" x2="240" y2="120" />
      <line x1="260" y1="0" x2="260" y2="120" />
      <line x1="280" y1="0" x2="280" y2="120" />
      <line x1="300" y1="0" x2="300" y2="120" />
      <line x1="320" y1="0" x2="320" y2="120" />
      <line x1="340" y1="0" x2="340" y2="120" />
      <line x1="360" y1="0" x2="360" y2="120" />
      <line x1="380" y1="0" x2="380" y2="120" />
      <line x1="400" y1="0" x2="400" y2="120" />
      <line x1="420" y1="0" x2="420" y2="120" />
      <line x1="440" y1="0" x2="440" y2="120" />
      <line x1="460" y1="0" x2="460" y2="120" />
      <line x1="480" y1="0" x2="480" y2="120" />
      <line x1="500" y1="0" x2="500" y2="120" />
      <line x1="520" y1="0" x2="520" y2="120" />
      <line x1="540" y1="0" x2="540" y2="120" />
      <line x1="560" y1="0" x2="560" y2="120" />
      <line x1="580" y1="0" x2="580" y2="120" />
      <line x1="600" y1="0" x2="600" y2="120" />
      <line x1="620" y1="0" x2="620" y2="120" />
      <line x1="640" y1="0" x2="640" y2="120" />
      <line x1="660" y1="0" x2="660" y2="120" />
      <line x1="680" y1="0" x2="680" y2="120" />
      <line x1="700" y1="0" x2="700" y2="120" />
      <line x1="720" y1="0" x2="720" y2="120" />
      <line x1="740" y1="0" x2="740" y2="120" />
      <line x1="760" y1="0" x2="760" y2="120" />
      <line x1="780" y1="0" x2="780" y2="120" />
    </g>
    <g id="horizontal-lines">
      <line x1="0" y1="20" x2="800" y2="20" />
      <line x1="0" y1="40" x2="800" y2="40" />
      <line x1="0" y1="60" x2="800" y2="60" />
      <line x1="0" y1="80" x2="800" y2="80" />
      <line x1="0" y1="100" x2="800" y2="100" />
    </g>
  </g>
  
  <!-- Éléments pixelisés -->
  <g id="pixel-elements">
    <!-- Étoiles pixelisées -->
    <rect x="60" y="30" width="10" height="10" fill="#FFD700" />
    <rect x="190" y="70" width="10" height="10" fill="#FFD700" />
    <rect x="300" y="20" width="10" height="10" fill="#FFD700" />
    <rect x="420" y="90" width="10" height="10" fill="#FFD700" />
    <rect x="550" y="40" width="10" height="10" fill="#FFD700" />
    <rect x="680" y="60" width="10" height="10" fill="#FFD700" />
    <rect x="740" y="30" width="10" height="10" fill="#FFD700" />
    
    <!-- Nuages pixelisés -->
    <g id="cloud1" transform="translate(100, 40)">
      <rect x="0" y="0" width="20" height="10" fill="#A095D5" />
      <rect x="20" y="0" width="20" height="10" fill="#A095D5" />
      <rect x="40" y="0" width="20" height="10" fill="#A095D5" />
      <rect x="10" y="10" width="40" height="10" fill="#A095D5" />
    </g>
    
    <g id="cloud2" transform="translate(500, 30)">
      <rect x="0" y="0" width="20" height="10" fill="#A095D5" />
      <rect x="20" y="0" width="20" height="10" fill="#A095D5" />
      <rect x="40" y="0" width="20" height="10" fill="#A095D5" />
      <rect x="10" y="10" width="40" height="10" fill="#A095D5" />
    </g>
    
    <!-- Petit personnage Spirit -->
    <g id="spirit-character" transform="translate(370, 60)">
      <rect x="10" y="0" width="20" height="10" fill="#FFCC88" /> <!-- Tête -->
      <rect x="0" y="10" width="40" height="20" fill="#9C27B0" /> <!-- Corps -->
      <rect x="0" y="30" width="10" height="10" fill="#9C27B0" /> <!-- Jambe gauche -->
      <rect x="30" y="30" width="10" height="10" fill="#9C27B0" /> <!-- Jambe droite -->
    </g>
  </g>
  
 
</svg>